<?xml version="1.0" encoding="UTF-8" standalone="no"?>
<!-- To add translation, please edit inside <switch> below using text editor. -->

<svg
   viewBox="0 0 165.95665 49.323675"
   width="331.9133"
   height="98.979691"
   version="1.1"
   id="svg1270"
   xmlns="http://www.w3.org/2000/svg"
   xmlns:svg="http://www.w3.org/2000/svg">
  <defs
     id="defs1158" />
  <g
     stroke-width="0.6"
     stroke="#666666"
     transform="translate(-8.6433592,35.774844)"
     id="g1174">
    <circle
       cx="24.4"
       r="13.3"
       id="circle1160"
       cy="0" />
    <circle
       cx="58"
       r="13.3"
       id="circle1162"
       cy="0" />
    <circle
       cx="92"
       r="13.3"
       fill="#cc3333"
       id="circle1164"
       cy="0" />
    <circle
       cx="126"
       r="13.3"
       fill="#cc6633"
       id="circle1166"
       cy="0" />
    <circle
       cx="161"
       r="13.3"
       fill="#cc9900"
       id="circle1168"
       cy="0" />
  </g>
  <path
     fill="#cc3333"
     d="m 7.6566408,40.374844 v -8.93 h 6.8200002 v 1.51 H 9.5166408 v 1.98 h 4.6200002 v 1.5 H 9.5166408 v 2.43 h 5.1400002 v 1.5 z m 9.8600002,0 h -2.21 l 3.14,-4.67 -2.85,-4.27 h 2.17 l 1.84,2.87 1.81,-2.87 h 2.15 l -2.86,4.34 3.14,4.6 h -2.24 l -2.04,-3.09 z"
     id="path1176" />
  <path
     fill="#ffffff"
     d="m 39.756641,40.374844 v -8.93 h 6.82 v 1.51 h -4.96 v 1.98 h 4.62 v 1.5 h -4.62 v 2.43 h 5.14 v 1.5 z m 9.89,0 -2.2,-8.93 h 1.9 l 1.39,6.14 1.68,-6.14 h 2.21 l 1.61,6.24 1.41,-6.24 h 1.87 l -2.23,8.93 h -1.97 l -1.83,-6.68 -1.83,6.68 z"
     id="path1178" />
  <path
     fill="#ffcccc"
     d="m 84.066641,40.354844 v -8.93 h 3.91 c 0.983,0 1.7,0.0802 2.14,0.241 0.44,0.1608 0.802,0.446 1.07,0.856 0.268,0.41 0.402,0.88 0.402,1.41 0,0.67 -0.203,1.22 -0.609,1.66 -0.406,0.44 -1.01,0.712 -1.82,0.826 0.402,0.228 0.733,0.477 0.995,0.75 0.262,0.273 0.614,0.756 1.06,1.45 l 1.12,1.74 h -2.22 l -1.34,-1.94 c -0.477,-0.695 -0.803,-1.13 -0.979,-1.31 -0.176,-0.18 -0.362,-0.305 -0.558,-0.372 -0.196,-0.067 -0.508,-0.101 -0.935,-0.101 h -0.376 v 3.73 z m 1.86,-5.16 h 1.37 c 0.891,0 1.45,-0.0366 1.67,-0.11 0.22,-0.0734 0.395,-0.199 0.521,-0.378 0.126,-0.179 0.188,-0.402 0.188,-0.67 0,-0.268 -0.0826,-0.543 -0.248,-0.728 -0.1654,-0.185 -0.398,-0.302 -0.7,-0.35 -0.151,-0.0203 -0.602,-0.0305 -1.36,-0.0305 h -1.45 z"
     id="path1182" />
  <path
     fill="#ffcc99"
     d="m 109.35664,40.374844 v -8.93 h 6.82 v 1.51 h -4.96 v 1.98 h 4.62 v 1.5 h -4.62 v 2.43 h 5.14 v 1.5 z m 8.6,0 v -8.93 h 1.81 l 3.76,5.97 v -5.97 h 1.73 v 8.93 h -1.86 l -3.71,-5.83 v 5.83 z"
     id="path1184" />
  <path
     fill="#ffffcc"
     d="m 148.33664,40.374844 h -1.98 l -3.29,-8.93 h 2.01 l 2.33,6.61 2.25,-6.61 h 1.97 z m 4.24,-8.93 h 1.86 v 4.84 c 0,0.768 0.0231,1.27 0.0691,1.49 0.0795,0.366 0.269,0.659 0.568,0.881 0.299,0.222 0.708,0.332 1.23,0.332 0.522,0 0.924,-0.105 1.19,-0.314 0.266,-0.209 0.429,-0.466 0.483,-0.771 0.054,-0.305 0.0816,-0.811 0.0816,-1.52 v -4.94 h 1.86 v 4.69 c 0,1.07 -0.0502,1.83 -0.151,2.27 -0.1008,0.44 -0.286,0.817 -0.555,1.12 -0.269,0.303 -0.631,0.548 -1.08,0.728 -0.449,0.18 -1.04,0.271 -1.77,0.271 -0.73,0 -1.54,-0.0985 -2,-0.296 -0.46,-0.1975 -0.813,-0.453 -1.08,-0.768 -0.267,-0.315 -0.437,-0.645 -0.521,-0.99 -0.084,-0.345 -0.182,-1.27 -0.182,-2.27 z"
     id="path1186" />
  <path
     fill="#333"
     d="m 82.156641,17.874844 c -3.51,0 -6.27,0.244 -8.28,0.731 -2.01,0.487 -3.42,1.31 -4.25,2.46 0,-1.59 0.559,-2.81 1.68,-3.66 1.121,-0.85 2.87,-1.44 5.24,-1.77 2.37,-0.33 5.58,-0.493 9.6,-0.493 h 18.399999 c 2.46,0 4.42,-0.0689 5.86,-0.207 1.44,-0.1381 2.75,-0.461 3.91,-0.97 1.47,-0.806 2.28,-1.52 2.42,-2.15 0.708,1.05 2.04,1.88 3.99,2.48 1.95,0.6 4.66,0.843 8.36,0.843 h 20.8 c 5.97,0 9.92,0.498 11.8,1.49 1.88,0.992 2.93,2.43 2.93,4.44 -1.05,-1.21 -2.51,-2.04 -4.4,-2.5 -1.89,-0.46 -4.58,-0.692 -8.09,-0.692 h -21.2 c -4.19,0 -7.4,-0.246 -9.62,-0.739 -2.22,-0.493 -3.77,-1.44 -4.65,-2.84 -0.821,1.44 -2.41,2.4 -4.78,2.87 -2.37,0.47 -5.81,0.707 -10.3,0.707 z"
     id="path1194"
     style="fill:#fafafa;fill-opacity:1" />
  <path
     stroke="#333333"
     d="m 15.756641,11.374844 v 7.66"
     id="path1196"
     style="fill:#fafafa;fill-opacity:1;stroke:#fafafa;stroke-opacity:1" />
  <g
     fill="#333333"
     font-family="sans-serif"
     font-size="11px"
     text-anchor="middle"
     id="g1268"
     transform="translate(-8.6433592,-13.725156)">
    <switch
       transform="translate(24.7,22.2)"
       id="switch1214"
       style="fill:#fafafa;fill-opacity:1">
      <text
         id="txex"
         style="fill:#fafafa;fill-opacity:1"><tspan
           id="tspex"
           x="1"
           style="font-style:normal;font-variant:normal;font-weight:normal;font-stretch:normal;font-size:12px;font-family:Arial;-inkscape-font-specification:'Arial, Normal';font-variant-ligatures:normal;font-variant-caps:normal;font-variant-numeric:normal;font-variant-east-asian:normal;fill:#fafafa;fill-opacity:1">Extinct</tspan></text>
    </switch>
    <switch
       transform="translate(124.3,22.2)"
       id="switch1232"
       style="fill:#fafafa;fill-opacity:1">
      <text
         id="txth"
         style="fill:#fafafa;fill-opacity:1"><tspan
           id="tspth"
           x="1.5"
           style="font-style:normal;font-variant:normal;font-weight:normal;font-stretch:normal;font-size:12px;font-family:Arial;-inkscape-font-specification:'Arial, Normal';font-variant-ligatures:normal;font-variant-caps:normal;font-variant-numeric:normal;font-variant-east-asian:normal;fill:#fafafa;fill-opacity:1">Threatened</tspan></text>
    </switch>
  </g>
  <g
     id="g1355"
     transform="matrix(2.0201719,0,0,2.0546747,-71.295581,-86.94131)">
    <path
       d="m 75.237966,60.358375 0.87321,0.268895 c -0.133876,0.472781 -0.356488,0.823919 -0.667839,1.053414 -0.311357,0.229496 -0.70638,0.344243 -1.185071,0.344243 -0.592284,0 -1.079091,-0.196499 -1.460422,-0.589498 -0.381333,-0.392998 -0.571999,-0.930293 -0.571998,-1.611886 -10e-7,-0.720988 0.191679,-1.280937 0.575041,-1.679849 0.383359,-0.398905 0.887407,-0.598359 1.512145,-0.598363 0.545627,4e-6 0.988824,0.156613 1.329592,0.469826 0.202833,0.185176 0.35496,0.451115 0.456382,0.797817 l -0.891466,0.206842 c -0.05274,-0.224568 -0.162779,-0.401861 -0.330116,-0.531879 -0.167343,-0.130011 -0.370686,-0.195018 -0.61003,-0.195022 -0.330626,4e-6 -0.598876,0.115244 -0.804754,0.345721 -0.20588,0.230484 -0.308819,0.603783 -0.308818,1.119899 -1e-6,0.547639 0.101417,0.937683 0.304255,1.170132 0.202834,0.232452 0.466521,0.348677 0.791061,0.348676 0.239345,10e-7 0.445223,-0.07387 0.617637,-0.221616 0.172408,-0.147743 0.296138,-0.380193 0.371191,-0.697352 z m 1.652102,1.59268 v -4.331852 h 1.895506 c 0.476663,4e-6 0.823005,0.03891 1.039029,0.116718 0.216017,0.07782 0.388935,0.216202 0.518754,0.41516 0.129812,0.198966 0.194719,0.426491 0.194723,0.682577 -4e-6,0.32504 -0.09838,0.593441 -0.295127,0.805205 -0.196755,0.211768 -0.490867,0.34523 -0.882338,0.400386 0.19472,0.110317 0.355468,0.231467 0.482243,0.36345 0.12677,0.131986 0.297659,0.366406 0.512669,0.703261 l 0.544616,0.845095 h -1.077061 l -0.651105,-0.942606 c -0.231236,-0.336855 -0.389448,-0.549114 -0.474637,-0.636776 -0.08519,-0.08766 -0.175455,-0.147743 -0.270786,-0.180248 -0.09533,-0.0325 -0.246448,-0.04875 -0.45334,-0.04876 h -0.182553 v 1.808386 z m 0.900593,-2.499827 h 0.666318 c 0.432039,2e-6 0.701811,-0.01773 0.809317,-0.05319 0.1075,-0.03546 0.191677,-0.09652 0.252531,-0.183203 0.06085,-0.08667 0.09127,-0.195018 0.09128,-0.325036 -3e-6,-0.145771 -0.04006,-0.263473 -0.120181,-0.353108 -0.08012,-0.08963 -0.193204,-0.146263 -0.339244,-0.169905 -0.07302,-0.0098 -0.292087,-0.01477 -0.65719,-0.01477 h -0.702828 z"
       style="font-style:normal;font-variant:normal;font-weight:bold;font-stretch:normal;font-size:12.2814px;line-height:125%;font-family:FreeSans;text-align:center;writing-mode:lr-tb;text-anchor:middle;display:inline;fill:#ffcccc;fill-opacity:1;stroke:none;stroke-width:0.5px;stroke-linecap:butt;stroke-linejoin:miter;stroke-opacity:1"
       id="text13442" />
  </g>
</svg>
