<?xml version="1.0" encoding="UTF-8" standalone="no"?>
<!-- To add translation, please edit inside <switch> below using text editor. -->

<svg
   viewBox="0 0 27.199997 27.108672"
   width="54.399994"
   height="54.400002"
   version="1.1"
   id="svg122"
   xmlns="http://www.w3.org/2000/svg"
   xmlns:svg="http://www.w3.org/2000/svg">
  <defs
     id="defs10" />
  <g
     stroke-width="0.6"
     stroke="#666666"
     transform="translate(-78.400002,13.485)"
     id="g26">
    <circle
       cx="24.4"
       r="13.3"
       id="circle12"
       cy="0" />
    <circle
       cx="58"
       r="13.3"
       id="circle14"
       cy="0" />
    <circle
       cx="92"
       r="13.3"
       fill="#cc3333"
       id="circle16"
       cy="0" />
    <path
       d="m 89.161521,1.3647047 1.729658,0.5464888 C 90.625998,2.8720535 90.185047,3.585689 89.568322,4.0521054 88.951584,4.5185218 88.16912,4.75173 87.220927,4.75173 86.047728,4.75173 85.083458,4.3523734 84.328116,3.5536603 83.57277,2.7549481 83.195098,1.662974 83.1951,0.2777349 c -2e-6,-1.4653038 0.379679,-2.6033186 1.139045,-3.414049 0.75936,-0.8107163 1.75778,-1.2160774 2.995263,-1.2160866 1.08078,9.2e-6 1.958666,0.3182928 2.633663,0.9548534 0.401772,0.3763437 0.703105,0.9168249 0.904002,1.6214476 l -1.765819,0.4203756 C 88.99679,-1.8121252 88.77882,-2.172447 88.44736,-2.4366896 88.115885,-2.700918 87.713102,-2.8330357 87.239006,-2.8330438 c -0.654902,8.1e-6 -1.186255,0.2342167 -1.594059,0.7026279 -0.407807,0.4684244 -0.611709,1.22710123 -0.611708,2.27603184 -10e-7,1.11299726 0.200888,1.90570496 0.602671,2.37812386 0.401774,0.4724241 0.924086,0.7086345 1.566936,0.7086334 0.474096,1.1e-6 0.8819,-0.1501325 1.223418,-0.4504025 0.341507,-0.3002659 0.586593,-0.7726871 0.735257,-1.417266 z m 3.272492,3.2368909 v -8.8038617 h 3.754627 c 0.944177,0 1.630212,0.079083 2.058114,0.237212 0.427889,0.1581497 0.770405,0.4393997 1.027541,0.8437534 0.257136,0.4043677 0.385717,0.8667807 0.385727,1.387238 -1e-5,0.660596 -0.194877,1.20608238 -0.584602,1.63646218 -0.389732,0.43038806 -0.972308,0.70163039 -1.747735,0.81372655 0.385701,0.22420336 0.704112,0.47042317 0.955229,0.73865947 0.251106,0.2682422 0.589604,0.7446679 1.01549,1.4292761 l 1.078796,1.717534 H 98.243741 L 96.95403,2.6858855 C 96.495995,2.0012764 96.182609,1.5698909 96.013864,1.3917294 95.845113,1.2135738 95.666324,1.0914645 95.477492,1.0254019 95.28864,0.95934813 94.989328,0.92630998 94.579515,0.92630998 H 94.217913 V 4.6015923 Z m 1.7839,-5.08053692 h 1.319845 c 0.855785,0 1.39015,-0.0360311 1.603098,-0.10809675 0.212937,-0.0720633 0.379675,-0.19617099 0.500215,-0.37233291 0.120533,-0.17615242 0.180787,-0.39634732 0.180808,-0.66058992 -7e-6,-0.2962584 -0.07936,-0.5354711 -0.238056,-0.7176404 -0.158701,-0.182156 -0.382699,-0.2972585 -0.671976,-0.3453083 -0.144638,-0.02 -0.578566,-0.030022 -1.301765,-0.030022 h -1.392165 z"
       style="font-style:normal;font-variant:normal;font-weight:bold;font-stretch:normal;font-size:12.2814px;line-height:125%;font-family:FreeSans;text-align:center;writing-mode:lr-tb;text-anchor:middle;display:inline;fill:#ffcccc;fill-opacity:1;stroke:none;stroke-width:0.5px;stroke-linecap:butt;stroke-linejoin:miter;stroke-opacity:1"
       id="text13442" />
    <circle
       cx="126"
       r="13.3"
       fill="#cc6633"
       id="circle18"
       cy="0" />
    <circle
       cx="161"
       r="13.3"
       fill="#cc9900"
       id="circle20"
       cy="0" />
    <circle
       cx="194"
       r="13.3"
       fill="#006666"
       id="circle22"
       cy="0" />
    <circle
       cx="228"
       r="13.3"
       fill="#006666"
       id="circle24"
       cy="0" />
  </g>
</svg>
