<?xml version="1.0" encoding="UTF-8" standalone="no"?>
<!-- To add translation, please edit inside <switch> below using text editor. -->

<svg
   viewBox="0 0 27.200012 27.108672"
   width="54.400024"
   height="54.400002"
   version="1.1"
   id="svg122"
   xmlns="http://www.w3.org/2000/svg"
   xmlns:svg="http://www.w3.org/2000/svg">
  <defs
     id="defs10" />
  <g
     stroke-width="0.6"
     stroke="#666666"
     transform="translate(-147.39999,13.485)"
     id="g26">
    <circle
       cx="24.4"
       r="13.3"
       id="circle12"
       cy="0" />
    <circle
       cx="58"
       r="13.3"
       id="circle14"
       cy="0" />
    <circle
       cx="92"
       r="13.3"
       fill="#cc3333"
       id="circle16"
       cy="0" />
    <circle
       cx="126"
       r="13.3"
       fill="#cc6633"
       id="circle18"
       cy="0" />
    <circle
       cx="161"
       r="13.3"
       fill="#cc9900"
       id="circle20"
       cy="0" />
    <circle
       cx="194"
       r="13.3"
       fill="#006666"
       id="circle22"
       cy="0" />
    <circle
       cx="228"
       r="13.3"
       fill="#006666"
       id="circle24"
       cy="0" />
  </g>
  <path
     fill="#ffffcc"
     d="m 9.5800061,18.085 h -1.98 l -3.29,-8.9299998 h 2.01 l 2.33,6.6099998 2.2499999,-6.6099998 h 1.97 z M 13.820006,9.1550002 h 1.86 V 13.995 c 0,0.768 0.0231,1.27 0.0691,1.49 0.0795,0.366 0.269,0.659 0.568,0.881 0.299,0.222 0.708,0.332 1.23,0.332 0.522,0 0.924,-0.105 1.19,-0.314 0.266,-0.209 0.429,-0.466 0.483,-0.771 0.054,-0.305 0.0816,-0.811 0.0816,-1.52 V 9.1530002 h 1.86 V 13.843 c 0,1.07 -0.0502,1.83 -0.151,2.27 -0.1008,0.44 -0.286,0.817 -0.555,1.12 -0.269,0.303 -0.631,0.548 -1.08,0.728 -0.449,0.18 -1.04,0.271 -1.77,0.271 -0.73,0 -1.54,-0.0985 -2,-0.296 -0.46,-0.1975 -0.813,-0.453 -1.08,-0.768 -0.267,-0.315 -0.437,-0.645 -0.521,-0.99 -0.084,-0.345 -0.182,-1.27 -0.182,-2.27 z"
     id="path38" />
</svg>
